<svg xmlns="http://www.w3.org/2000/svg" viewBox="534 529 78 72"><path fill="#91AA9D" d="M548.73,555.03c-0.47,0.18-0.98,0.4-1.18,0.86c-0.15,0.34-0.08,0.72-0.02,1.09
	c2.27,12.67,5.49,25.17,9.63,37.36c0.2,0.6,0.45,1.25,1.01,1.53c0.61,0.31,1.35,0.07,1.99-0.19c8.22-3.21,16.65-6.55,25.48-6.59
	c4.75-0.02,9.99,0.79,13.85-1.98c3.39-2.43,4.59-7.02,4.28-11.19c-0.32-4.16-1.88-8.11-2.98-12.13c-1.37-5.01-0.04-13.34-2.47-17.67
	c-2.48-4.43-9.24-3.63-13.87-3.28C572.34,543.77,559.96,550.74,548.73,555.03z"/>
<path d="M592.02,535.73c-0.07-0.51-0.63-1.06-1.12-1.15c-3.97-0.77-9.02,2.72-12.68,3.81c-3.01,0.9-6.23,1.34-9.2,2.33
	c-4.73,0.05-10.32,3.74-14.47,4.83c-3.66,0.97-13.08,0.22-14.88,4.12c-0.96,2.1,0.84,6.08,1.34,8.16c0.89,3.7,1.94,7.33,3.1,10.94
	c2.6,8.15,4,16.76,7.11,24.74c0.42,1.07,1.08,1.58,2.2,1.74c3.88,0.54,7.36-2.15,10.82-3.38c3.75-1.33,7.85-1.85,11.67-3.03
	c10-3.1,20.1-5.12,29.77-9.29c0.83-0.36,1.11-1.45,0.95-2.24C603.76,562.95,593.91,550.27,592.02,535.73z M572.73,584.99
	c-3.91,1.23-7.95,1.55-11.76,3.13c-1.13,0.47-3.58,2.38-4.91,2.12c-1.55-0.3-1.22-0.85-1.86-2.86c-0.72-2.25-1.44-4.46-2.29-6.65
	c-2.02-5.18-3.27-10.62-5.09-15.87c-0.9-2.6-1.79-5.22-2.61-7.85c-0.37-1.18-0.69-2.37-1.11-3.54c-0.95-2.65-1.08-1.92,1.29-2.91
	c4.61-1.92,9.96-1.34,14.75-3.18c1.59-0.61,3.38-1.64,5.21-2.57c0.23,0.19,0.55,0.3,0.95,0.24c4.87-0.74,10-2.3,14.7-3.76
	c1.93-0.6,7.84-3.92,9.25-3.44c-0.48-0.16,1.02,3.67,1.4,4.73c1.77,4.94,3.68,9.69,5.73,14.51c1.51,3.54,2.24,6.95,3.39,10.58
	c0.01,0.04,0.02,0.07,0.04,0.11c-0.09,0.04-0.17,0.09-0.23,0.18c-0.75,1.04-1.97,1.74-2.77,2.78c-1.09,1.41-2.39,2.66-3.61,3.97
	c0.05-0.4,0.06-0.81-0.01-1.22c-0.14-0.76-0.81-1.73-1.26-2.6c0.53,0.19,1.1,0.44,1.4,0.46c1.23,0.08,2.09-0.36,3.12-0.98
	c1.6-0.96,3.1-1.9,1.88-3.84c-0.28-0.44-1.15-0.47-1.25,0.15c-0.07,0.46-1.84,1.39-2.3,1.59c-1.38,0.63-2.19-0.07-3.53-0.17
	c-1.25-0.09-2.43,0.41-2.37,1.85c0.08,2.27,2.51,3.23,1.29,5.68c-0.95,1.91-2.63,3.52-4,5.28
	C581.67,582.24,577.18,583.6,572.73,584.99z M602.46,576.33c-3.66,0.99-7.32,2.02-10.99,3.07c0.42-0.47,0.83-0.94,1.3-1.4
	c1.35-1.3,2.84-2.47,4.19-3.78c1.23-1.2,2.35-2.49,3.24-3.97c0.11-0.18,0.2-0.35,0.27-0.52
	C601.26,571.94,602.06,573.99,602.46,576.33z"/>
<path d="M582.12,550.05c-2.11,0.42-3.23,2.55-5.26,3.21c-2.2,0.71-4.84,0.14-7.14,0.63c-2.41,0.51-4.29,1.85-6.56,2.7
	c-0.98,0.36-2.09,0.89-3.1,1.17c-2.09,0.58-2.39-0.25-3.87-0.71c-0.12-0.04-0.17,0.12-0.08,0.19c2.09,1.47,2.23,2.12,4.83,1.25
	c1.16-0.39,2.39-0.64,3.52-1.09c1.6-0.64,3-1.6,4.69-2.06c2.63-0.71,5.52,0.02,8.07-0.77c2.11-0.66,3.59-2.6,5.2-3.99
	C582.67,550.35,582.4,549.99,582.12,550.05z"/>
<path d="M584.12,553.63c-1.28-0.3-2.39,0.43-3.54,0.9c-2.15,0.87-3.9,1.86-5.95,2.9c-5.61,2.84-10.96,4.92-17.33,5.04
	c-0.44,0.01-0.44,0.67,0,0.68c4.82,0.14,9.26-0.43,13.59-2.61c2.42-1.21,4.83-2.48,7.25-3.67c0.97-0.47,3-1.48,4.56-1.91
	c0.05,0.13,0.18,0.24,0.33,0.18c0.37-0.12,0.73-0.25,1.09-0.4C584.61,554.56,584.73,553.77,584.12,553.63z"/>
<path d="M583.33,559.99c-7.15-0.65-14.86,3.06-20.58,6.99c-0.43,0.29-0.03,0.99,0.41,0.7c5.95-3.88,13.21-6.24,20.22-7.35
	C583.58,560.29,583.51,560,583.33,559.99z"/>
<path d="M549.33,549.97c-0.34,2.71-0.95,5.77-1.9,8.34c-0.47,1.27-1.15,2.48-1.53,3.79c-0.33,1.11-0.42,2.22-0.83,3.3
	c-0.06,0.16,0.16,0.26,0.27,0.15c0.78-0.75,0.8-1.16,1.13-2.23c0.51-1.64,1.21-3.18,1.8-4.79c0.97-2.67,1.55-5.75,1.9-8.56
	C550.23,549.44,549.4,549.45,549.33,549.97z"/>
<path d="M551.6,556.27c-0.59,3.53-1.29,7.1-2.13,10.57c-0.4,1.64-0.97,3.18-1.23,4.85c-0.23,1.47-0.22,2.56,0.1,3.9
	c-0.02-0.1-0.17-0.1-0.2,0c-0.02,0.08-0.04,0.16-0.06,0.23c-0.05,0.2,0.26,0.28,0.31,0.08c1.45-6.42,2.98-12.91,4.03-19.42
	C552.51,555.96,551.69,555.73,551.6,556.27z"/>
<path d="M555.77,562.42c-0.38,4.16-1.29,8.22-2.29,12.27c-0.4,1.65-0.87,3.29-1.14,4.97c-0.09,0.54-0.17,3.75-0.8,4.13
	c-0.16,0.1-0.07,0.3,0.09,0.32c0.1,0.01,0.2,0.02,0.3,0.04c0.13,0.02,0.22-0.1,0.26-0.2c1.37-3.28,1.72-7.08,2.52-10.54
	c0.84-3.63,1.52-7.26,1.83-10.97C556.59,561.92,555.82,561.93,555.77,562.42z"/>
<path d="M558.38,573.37c-0.01,2.91-0.53,5.71-1.23,8.52c-0.43,1.72-0.6,5.12-1.88,6.43c-0.14,0.15,0,0.39,0.2,0.34
	c1.79-0.46,1.77-3.55,2.15-5.03c0.87-3.39,1.62-6.74,1.62-10.26C559.23,572.81,558.38,572.81,558.38,573.37z"/>
<path d="M561.85,577.8c-0.43,2.65-1.41,5.16-1.87,7.8c-0.28,1.57-0.52,4.39-2.03,5.33c-0.18,0.11-0.09,0.35,0.1,0.37
	c1.67,0.19,2.18-1.92,2.48-3.2c0.39-1.66,0.5-3.36,0.94-5.02c0.45-1.73,0.93-3.4,1.1-5.18C562.6,577.5,561.92,577.4,561.85,577.8z"
	/>
<path d="M567.01,581.16c-0.78,3.43-1.98,6.8-3,10.17c-0.05,0.03-0.1,0.09-0.1,0.15c0,0.08-0.01,0.16-0.01,0.25
	c-0.01,0.21,0.25,0.35,0.42,0.24c1.24-0.78,1.37-2.31,1.7-3.65c0.57-2.33,1.45-4.55,1.95-6.9
	C568.09,580.8,567.15,580.53,567.01,581.16z"/>
<path d="M571.92,579.4c-0.43,3.31-1.85,6.58-3.1,9.67c-0.02,0.02-0.05,0.04-0.06,0.08c-0.02,0.07-0.04,0.14-0.06,0.22
	c-0.07,0.25,0.2,0.41,0.41,0.31c1.29-0.58,1.45-2.56,1.89-3.75c0.8-2.15,1.56-4.25,1.85-6.53C572.93,578.81,572,578.81,571.92,579.4
	z"/>
<path d="M576.51,577.42c-0.16-0.43-0.84-0.26-0.7,0.19c1.12,3.72-3.09,6.9-2.09,10.52c0.05,0.17,0.33,0.19,0.36,0
	C574.65,584.6,577.86,581.12,576.51,577.42z"/></svg>