<svg width="256" height="256" viewBox="0 0 256 256" fill="none" xmlns="http://www.w3.org/2000/svg">
<g clip-path="url(#clip0_4_16)">
<path d="M195.714 199.784L207 171.27C207 159.865 201.357 154.162 195.714 154.162L178.786 137.054C165.702 134.607 152.524 132.704 139.286 131.351C121.962 129.647 104.908 125.817 88.5 119.946L71.5714 114.243L65.9286 102.838L71.5714 91.4324C79.8693 80.8715 89.3356 71.3048 99.7857 62.9189L122.357 51.5135L144.929 40.1081H156.214L161.857 45.8108C163.509 59.0647 163.509 72.4758 161.857 85.7297V91.4324H167.5V85.7297C172.107 74.6272 175.88 63.1894 178.786 51.5135V23H150.571C127.758 33.9088 105.181 45.3169 82.8571 57.2162L65.9286 68.6216L54.6429 85.7297L49 108.541L54.6429 125.649L77.2143 137.054C93.8495 142.085 110.822 145.896 128 148.459L173.143 159.865C184.429 159.865 184.429 165.568 184.429 176.973L178.786 194.081L161.857 205.486C149.817 212.509 136.251 216.426 122.357 216.892H111.071L105.429 211.189V205.486L99.7857 211.189L94.1429 222.595L105.429 228.297L133.643 234C147.414 232.807 160.827 228.934 173.143 222.595C182.358 216.917 190.097 209.097 195.714 199.784Z" fill="black"/>
<circle cx="128" cy="128" r="124.5" stroke="black" stroke-width="7"/>
</g>
<defs>
<clipPath id="clip0_4_16">
<rect width="256" height="256" fill="white"/>
</clipPath>
</defs>
</svg>
